<svg width="1277" height="155" xmlns="http://www.w3.org/2000/svg" xmlns:xlink="http://www.w3.org/1999/xlink" overflow="hidden"><defs><clipPath id="clip0"><rect x="-168" y="206" width="1277" height="155"/></clipPath><clipPath id="clip1"><rect x="-167" y="207" width="1276" height="153"/></clipPath><clipPath id="clip2"><rect x="-168" y="207" width="1277" height="153"/></clipPath><clipPath id="clip3"><rect x="-170" y="207" width="1281" height="285"/></clipPath></defs><g clip-path="url(#clip0)" transform="translate(168 -206)"><g clip-path="url(#clip1)"><g clip-path="url(#clip2)"><g clip-path="url(#clip3)"><path d="M0 85.3423 30.4921 94.8544C60.9842 104.011 121.791 123.569 183.13 132.725 243.848 142.237 304.921 142.237 365.372 128.013 426.712 113.79 488.051 85.3423 548.502 66.407 609.575 47.1161 670.293 38.2262 731.633 33.159 792.439 28.4474 853.423 28.4474 914.763 52.1833 975.303 75.5635 1036.55 123.569 1097 137.526 1158.26 152.016 1218.8 132.458 1249.91 123.302L1280.13 113.79 1280.13 0 1249.64 0C1219.15 0 1158.34 0 1097 0 1036.29 0 975.214 0 914.763 0 853.423 0 792.083 0 731.633 0 670.56 0 609.842 0 548.502 0 487.696 0 426.712 0 365.372 0 304.832 0 243.581 0 183.13 0 121.88 0 61.3398 0 30.2254 0L0 0Z" fill="#FCCB90" transform="matrix(1 0 0 1.00034 -169.624 207)"/></g></g></g></g></svg>